<?xml version="1.0" encoding="utf-8"?>
<!-- Generator: Adobe Illustrator 17.1.0, SVG Export Plug-In . SVG Version: 6.00 Build 0)  -->
<!DOCTYPE svg PUBLIC "-//W3C//DTD SVG 1.1//EN" "http://www.w3.org/Graphics/SVG/1.1/DTD/svg11.dtd">
<svg version="1.1" xmlns="http://www.w3.org/2000/svg" xmlns:xlink="http://www.w3.org/1999/xlink" x="0px" y="0px"
	 viewBox="0 0 818 452" enable-background="new 0 0 818 452" xml:space="preserve">
<g id="SOUNDS">
	<g>
		<path fill="#FEFEFE" d="M44.7,183.8l14.4-4.2c2.3,19.4,11.1,38.6,33,38.6c16.9,0,26.3-9.8,26.3-26.7c0-15.7-11.4-29.1-24.8-43.3
			l-28.9-30.4c-10.8-11.5-19.6-23.1-19.6-37C45.1,56.3,63.1,41,87.7,41c24.4,0,39.1,14.2,43.9,40.1l0.3,1.7l-13.8,4.3l-0.2-1.5
			c-2.7-17.3-12.7-31.5-30.3-31.5C72,54.1,60.9,62,60.9,78.7c0,10.4,6.2,19.8,15.1,29.4l27.2,29.5c14.5,15.9,30.7,31.2,30.7,52.4
			c0,27.3-18.9,41.3-43.7,41.3C63.2,231.3,48.6,209.3,44.7,183.8z"/>
		<path fill="#FEFEFE" d="M165.8,174.8V97.4c0-31.3,11.3-56.4,47.2-56.4s47.2,25.1,47.2,56.4v77.5c0,31-10.4,56.5-47.2,56.5
			S165.8,205.9,165.8,174.8z M243.8,178.5V93.7c0-21.9-6.8-39.6-30.8-39.6s-30.8,17.7-30.8,39.6v84.8c0,21.9,6.8,39.7,30.8,39.7
			S243.8,200.4,243.8,178.5z"/>
		<path fill="#FEFEFE" d="M298.1,183V43.5h16.3v143.2c0,20.3,7.8,31.5,31.5,31.5c22.3,0,29.9-11.4,29.9-31.5V43.5H392V183
			c0,26-9.7,48.3-46.1,48.3C308,231.3,298.1,209,298.1,183z"/>
		<path fill="#FEFEFE" d="M432.8,228.4V43.5h12.6L504,190V43.5h13.9v184.9h-12.2L446.9,85.1v143.3H432.8z"/>
		<path fill="#FEFEFE" d="M560.2,228.4V43.5h41.6c35.9,0,47.2,24.5,47.2,55.1v75.2c0,29.9-10.4,54.6-47.2,54.6H560.2z M576.5,215.3
			h25.2c24.1,0,30.8-17.2,30.8-37.8V95c0-21.3-6.8-38.3-30.8-38.3h-25.2V215.3z"/>
		<path fill="#FEFEFE" d="M681.4,183.8l14.4-4.2c2.3,19.4,11.1,38.6,33,38.6c16.9,0,26.3-9.8,26.3-26.7c0-15.7-11.4-29.1-24.8-43.3
			l-28.9-30.4c-10.8-11.5-19.6-23.1-19.6-37c0-24.5,17.9-39.9,42.5-39.9c24.4,0,39.1,14.2,43.9,40.1l0.3,1.7l-13.8,4.3l-0.2-1.5
			C752,68.3,742,54.1,724.4,54.1c-15.7,0-26.7,7.9-26.7,24.6c0,10.4,6.2,19.8,15.1,29.4l27.2,29.5c14.5,15.9,30.7,31.2,30.7,52.4
			c0,27.3-18.9,41.3-43.7,41.3C699.9,231.3,685.3,209.3,681.4,183.8z"/>
	</g>
</g>
<g id="Clever">
	<g>
		<path fill="#FEFEFE" d="M104.7,409.3c-7.4,3-15,4.6-23,4.6c-12.4,0-22.6-4.2-30.4-12.5c-7.9-8.4-11.8-19.3-11.8-32.7
			c0-14.8,4.3-26.6,12.8-35.5c8.5-8.9,19.3-13.4,32.4-13.4c7,0,13.7,1.1,20.1,3.4v6.7c-6.4-2.9-13.1-4.3-20.2-4.3
			c-11.4,0-20.7,3.9-27.9,11.6c-7.2,7.7-10.7,18-10.7,30.9c0,12.4,3.4,22.2,10.3,29.4c6.8,7.2,15.5,10.8,26,10.8
			c8.4,0,15.9-1.6,22.5-4.9V409.3z"/>
		<path fill="#FEFEFE" d="M189.9,412.3v-91h6.3v85.3h36.5v5.7H189.9z"/>
		<path fill="#FEFEFE" d="M314.5,412.3v-91H357v5.8h-36.2v36.5h33.6v5.7h-33.6v37.3h38.3v5.7H314.5z"/>
		<path fill="#FEFEFE" d="M473.4,412.3h-4.7l-33.3-91h7l26.3,73.3c1.1,3,1.9,5.9,2.3,8.6h0.3c0.4-2.2,1.3-5.1,2.6-8.8l28-73.2h6.7
			L473.4,412.3z"/>
		<path fill="#FEFEFE" d="M588,412.3v-91h42.5v5.8h-36.2v36.5h33.6v5.7h-33.6v37.3h38.3v5.7H588z"/>
		<path fill="#FEFEFE" d="M764.6,412.3l-12.1-26.7c-2.5-5.5-5-9.2-7.5-11.1c-2.5-1.9-5.6-2.8-9.4-2.8h-11.3v40.6H718v-91h25.3
			c8,0,14.4,2.2,18.9,6.5c4.6,4.3,6.9,10.1,6.9,17.2c0,6.6-1.9,12-5.6,16.4c-3.8,4.4-9,7.2-15.8,8.5v0.3c3.6,1.4,7.1,5.8,10.5,13.1
			l13.5,29H764.6z M724.3,327v39H740c6.9,0,12.5-1.8,16.5-5.5s6.1-8.6,6.1-15c0-5.8-1.8-10.3-5.5-13.6c-3.7-3.3-9-4.9-15.8-4.9
			H724.3z"/>
	</g>
</g>
<g id="Layer_4">
	<rect x="40" y="270.9" fill="#FEFEFE" width="734" height="7"/>
</g>
</svg>
